<svg xmlns="http://www.w3.org/2000/svg" viewBox="0 0 69.8 54.5"><defs><style>.cls-1{fill:#fff;}.cls-2{fill:#4d6291;}.cls-3{opacity:0.2;}.cls-4{fill:#f29291;}.cls-5{fill:#455a80;}</style></defs><title>ico-websites_1</title><g id="Layer_2" data-name="Layer 2"><g id="Capa_3" data-name="Capa 3"><path class="cls-1" d="M13.4.7H65.3a3.9,3.9,0,0,1,3.9,3.9V40.7a0,0,0,0,1,0,0H9.5a0,0,0,0,1,0,0V4.5A3.9,3.9,0,0,1,13.4.7Z"/><path class="cls-2" d="M69.2,41.4H9.5a.7.7,0,0,1-.6-.7V4.5A4.5,4.5,0,0,1,13.4,0H65.3a4.5,4.5,0,0,1,4.5,4.5V40.7A.7.7,0,0,1,69.2,41.4Zm-59-1.3H68.5V4.5a3.2,3.2,0,0,0-3.2-3.2H13.4a3.2,3.2,0,0,0-3.2,3.2Z"/><polygon class="cls-1" points="35 40.7 33.2 51.6 44.9 51.6 42.9 40.7 35 40.7"/><path class="cls-2" d="M44.9,52.3H33.2l-.5-.2a.7.7,0,0,1-.2-.6l1.9-10.9a.6.6,0,0,1,.6-.5h7.9a.6.6,0,0,1,.6.5l2,10.9a.7.7,0,0,1-.1.6ZM33.9,51H44.1l-1.7-9.6H35.6Z"/><g class="cls-3"><path class="cls-2" d="M18.7,5.1H60.2A3.9,3.9,0,0,1,64.1,9V36a0,0,0,0,1,0,0H14.8a0,0,0,0,1,0,0V9A3.9,3.9,0,0,1,18.7,5.1Z"/><path class="cls-2" d="M64.1,36.7H14.8a.7.7,0,0,1-.6-.7V9a4.5,4.5,0,0,1,4.5-4.5H60.2A4.5,4.5,0,0,1,64.7,9V36A.7.7,0,0,1,64.1,36.7ZM15.5,35.4H63.4V9a3.2,3.2,0,0,0-3.2-3.2H18.7A3.2,3.2,0,0,0,15.5,9Z"/></g><path class="cls-4" d="M51.3,19.2c-.1-1.8,0-14.8,0-14.8l-31.7.2V20.3L31.7,31.5s1.8,3,4.6,3a3.8,3.8,0,0,0,4-3c.1-1,0-10,0-14s3.7-3,3.7-.2-.5,7.8,3.5,8.1S51.4,21,51.3,19.2ZM31.2,23.3,28,20.1V17.7c0-1.3,2.6-2,3.2,0Z"/><rect class="cls-1" x="33.2" y="51.6" width="11.7" height="2.25"/><path class="cls-2" d="M44.9,54.5H33.2a.7.7,0,0,1-.7-.6V51.6a.7.7,0,0,1,.7-.6H44.9a.7.7,0,0,1,.7.6v2.3A.7.7,0,0,1,44.9,54.5ZM33.8,53.2H44.3v-.9H33.8Z"/><circle class="cls-1" cx="4" cy="48.2" r="1"/><path class="cls-1" d="M4,49.3a1.2,1.2,0,0,1-1.2-1.1,1.2,1.2,0,0,1,2.4,0A1.2,1.2,0,0,1,4,49.3Zm0-2a.9.9,0,1,0,.9.9A.9.9,0,0,0,4,47.3Z"/><line class="cls-1" x1="28.8" y1="53.9" x2="49.3" y2="53.9"/><path class="cls-2" d="M49.3,54.5H28.8a.7.7,0,0,1-.7-.6.7.7,0,0,1,.7-.7H49.3a.7.7,0,0,1,.7.7A.7.7,0,0,1,49.3,54.5Z"/><path class="cls-2" d="M14.8,14.4a.7.7,0,0,1-.6-.7V9a4.5,4.5,0,0,1,4.5-4.5H37.5a.7.7,0,0,1,.7.6.7.7,0,0,1-.7.7H18.7A3.2,3.2,0,0,0,15.5,9v4.7A.7.7,0,0,1,14.8,14.4Z"/><path class="cls-2" d="M64.1,19.7a.7.7,0,0,1-.7-.7V9c0-.4.3-.6.7-.6a.6.6,0,0,1,.6.6V19A.7.7,0,0,1,64.1,19.7Z"/><path class="cls-2" d="M64.1,37H58.4a.7.7,0,0,1-.6-.7.6.6,0,0,1,.6-.6h5V22.9a.7.7,0,0,1,.7-.6.6.6,0,0,1,.6.6V36.3A.7.7,0,0,1,64.1,37Z"/><polyline class="cls-1" points="14.8 26.1 18.9 18.7 21.2 16.6"/><path class="cls-2" d="M14.8,26.8h-.3a.7.7,0,0,1-.2-.9l4.1-7.4h.1l2.2-2.2a.6.6,0,0,1,.9.1.6.6,0,0,1,0,.9l-2.2,2-4,7.3A.5.5,0,0,1,14.8,26.8Z"/><rect class="cls-1" x="9.7" y="31.7" width="18.1" height="6.47" transform="translate(31.1 -2.7) rotate(46.4)"/><path class="cls-2" d="M22.6,44.3h0c-.2,0-.3,0-.4-.2L9.7,31l-.2-.4a.8.8,0,0,1,.2-.5l4.7-4.4a.6.6,0,0,1,.9,0L27.8,38.8a.7.7,0,0,1,0,.9l-4.7,4.5ZM11.1,30.6,22.6,42.8l3.8-3.6L14.8,27Z"/><line class="cls-1" x1="13.1" y1="27.7" x2="19.3" y2="34.2"/><path class="cls-2" d="M19.3,34.9l-.5-.2-6.1-6.5a.6.6,0,1,1,.9-.9l6.2,6.5a.7.7,0,0,1,0,.9Z"/><path class="cls-2" d="M5.6,33.7H12a0,0,0,0,1,0,0V50.5a3.2,3.2,0,0,1-3.2,3.2h0a3.2,3.2,0,0,1-3.2-3.2V33.7A0,0,0,0,1,5.6,33.7Z" transform="translate(34.3 7.2) rotate(46.4)"/><path class="cls-2" d="M3.8,52.2H3.7A3.4,3.4,0,0,1,1.1,51,3.9,3.9,0,0,1,0,48.3a3.6,3.6,0,0,1,1.2-2.7L13.4,34c.2-.3.7-.2.9,0l4.4,4.6c.1.2.2.3.2.5a.5.5,0,0,1-.2.4L6.5,51.2A4.3,4.3,0,0,1,3.8,52.2Zm10-16.8L2.1,46.5a2.5,2.5,0,0,0-.8,1.8A2.4,2.4,0,0,0,2,50.1a2.5,2.5,0,0,0,1.8.8,2.4,2.4,0,0,0,1.8-.7L17.3,39.1Z"/><rect class="cls-2" x="24.4" y="13.4" width="9.6" height="23.16" rx="4.8" transform="translate(-9.2 27) rotate(-43.6)"/><path class="cls-2" d="M33.8,35.3h-.1a5.5,5.5,0,0,1-3.8-1.6l-9.4-9.9a5.5,5.5,0,0,1,.2-7.7,5.6,5.6,0,0,1,7.7.2l9.4,9.9A5.4,5.4,0,0,1,39.3,30a5.8,5.8,0,0,1-1.7,3.8h0A5.4,5.4,0,0,1,33.8,35.3ZM24.5,15.9a4,4,0,0,0-2.9,1.2,4.1,4.1,0,0,0-.1,5.8l9.3,9.9A4,4,0,0,0,33.7,34a3.8,3.8,0,0,0,3-1.1h0A4.6,4.6,0,0,0,38,30a4,4,0,0,0-1.2-2.9l-9.4-9.9A4.3,4.3,0,0,0,24.5,15.9Z"/><polyline class="cls-1" points="27.3 39.2 34.9 35.5 37.1 33.4"/><path class="cls-2" d="M27.3,39.9a.8.8,0,0,1-.6-.4.8.8,0,0,1,.3-.9L34.5,35l2.2-2.1a.6.6,0,1,1,.9.9L35.3,36h-.1l-7.6,3.7Z"/><polygon class="cls-5" points="18.2 40 8 39.2 12.9 34.4 18.2 40"/></g></g></svg>