<svg xmlns="http://www.w3.org/2000/svg" viewBox="0 0 110.9 54.5"><defs><style>.cls-1{fill:#fff;}.cls-2{fill:#4d6291;}.cls-3{opacity:0.2;}.cls-4{fill:#455a80;}.cls-5{fill:#f29291;}</style></defs><title>ico-web y mobile apps</title><g id="Layer_2" data-name="Layer 2"><g id="Capa_3" data-name="Capa 3"><path class="cls-1" d="M36.7.7H88.5a3.9,3.9,0,0,1,3.9,3.9V40.7a0,0,0,0,1,0,0H32.8a0,0,0,0,1,0,0V4.5A3.9,3.9,0,0,1,36.7.7Z"/><path class="cls-2" d="M92.4,41.4H32.8a.7.7,0,0,1-.7-.7V4.5A4.6,4.6,0,0,1,36.7,0H88.5A4.5,4.5,0,0,1,93,4.5V40.7C93,41.1,92.8,41.4,92.4,41.4Zm-59-1.3H91.8V4.5a3.3,3.3,0,0,0-3.3-3.2H36.7a3.3,3.3,0,0,0-3.3,3.2Z"/><g class="cls-3"><path class="cls-2" d="M41.8,5.3H83.4a3.9,3.9,0,0,1,3.9,3.9V36a0,0,0,0,1,0,0H37.9a0,0,0,0,1,0,0V9.2A3.9,3.9,0,0,1,41.8,5.3Z"/><path class="cls-2" d="M87.3,36.7H37.9a.7.7,0,0,1-.7-.7V9.2a4.6,4.6,0,0,1,4.6-4.5H83.4A4.6,4.6,0,0,1,88,9.2V36A.7.7,0,0,1,87.3,36.7ZM38.5,35.4H86.7V9.2A3.2,3.2,0,0,0,83.4,6H41.8a3.2,3.2,0,0,0-3.3,3.2Z"/></g><path class="cls-2" d="M87.3,36.7H66.9a.7.7,0,0,1-.7-.7.7.7,0,0,1,.7-.6H86.7V21.8a.7.7,0,0,1,.6-.7.7.7,0,0,1,.7.7V36A.7.7,0,0,1,87.3,36.7Z"/><path class="cls-2" d="M37.9,15.8a.7.7,0,0,1-.7-.7V9.2a4.6,4.6,0,0,1,4.6-4.5H60.7a.6.6,0,0,1,.6.6.7.7,0,0,1-.6.7H41.8a3.2,3.2,0,0,0-3.3,3.2v5.9C38.5,15.5,38.3,15.8,37.9,15.8Z"/><polygon class="cls-1" points="58.3 40.7 56.4 51.6 68.2 51.6 66.2 40.7 58.3 40.7"/><path class="cls-2" d="M68.1,52.3H56.4l-.5-.2a.7.7,0,0,1-.1-.6l1.8-10.9a.8.8,0,0,1,.7-.5h7.8a.7.7,0,0,1,.7.5l2,10.9a.7.7,0,0,1-.2.6ZM57.2,51H67.4l-1.8-9.6H58.8Z"/><rect class="cls-1" x="56.4" y="51.6" width="11.7" height="2.25"/><path class="cls-2" d="M68.1,54.5H56.4a.6.6,0,0,1-.6-.6V51.6a.6.6,0,0,1,.6-.6H68.1a.7.7,0,0,1,.7.6v2.3A.7.7,0,0,1,68.1,54.5ZM57,53.2H67.5v-.9H57Z"/><line class="cls-1" x1="52.1" y1="53.9" x2="72.7" y2="53.9"/><path class="cls-2" d="M72.7,54.5H52.1a.6.6,0,0,1-.6-.6.7.7,0,0,1,.6-.7H72.7a.7.7,0,0,1,.7.7A.7.7,0,0,1,72.7,54.5Z"/><rect class="cls-1" x="46.6" y="12.5" width="32.2" height="16.75"/><path class="cls-2" d="M78.8,30H46.6a.7.7,0,0,1-.7-.7V12.5a.7.7,0,0,1,.7-.6H78.8a.7.7,0,0,1,.7.6V29.3A.7.7,0,0,1,78.8,30ZM47.2,28.7h31V13.2h-31Z"/><polygon class="cls-4" points="46.6 29.3 54.6 22.5 61.4 29.3 46.6 29.3"/><polygon class="cls-2" points="55.3 29.3 66.2 20.1 75.3 29.3 55.3 29.3"/><path class="cls-2" d="M75.3,29.9h-20a.7.7,0,0,1-.5-.4.6.6,0,0,1,.1-.6l10.9-9.2a.6.6,0,0,1,.8,0l9.1,9.2a.5.5,0,0,1,.1.6A.7.7,0,0,1,75.3,29.9ZM56.9,28.7h17l-7.8-7.8Z"/><circle class="cls-5" cx="59" cy="18.8" r="2.1"/><path class="cls-5" d="M59,21.9a3.1,3.1,0,1,1,3.1-3.1A3.1,3.1,0,0,1,59,21.9Zm0-4.2a1.1,1.1,0,1,0,1.1,1.1A1.1,1.1,0,0,0,59,17.7Z"/><path class="cls-1" d="M9.9,20.3H44.1A3.9,3.9,0,0,1,48,24.2V44.9a0,0,0,0,1,0,0H6a0,0,0,0,1,0,0V24.2A3.9,3.9,0,0,1,9.9,20.3Z"/><path class="cls-2" d="M48,45.5H6a.6.6,0,0,1-.6-.6V24.2a4.6,4.6,0,0,1,4.5-4.6H44.1a4.7,4.7,0,0,1,4.6,4.6V44.9A.7.7,0,0,1,48,45.5ZM6.7,44.2H47.4v-20a3.3,3.3,0,0,0-3.3-3.3H9.9a3.2,3.2,0,0,0-3.2,3.3Z"/><path class="cls-1" d="M13.2,24.4H40.9a2.8,2.8,0,0,1,2.8,2.8v15a0,0,0,0,1,0,0H10.3a0,0,0,0,1,0,0v-15A2.8,2.8,0,0,1,13.2,24.4Z"/><path class="cls-2" d="M43.7,42.8H10.3a.6.6,0,0,1-.6-.6v-15a3.5,3.5,0,0,1,3.5-3.5H40.9a3.5,3.5,0,0,1,3.5,3.5v15A.7.7,0,0,1,43.7,42.8ZM11,41.5H43.1V27.2A2.2,2.2,0,0,0,40.9,25H13.2A2.2,2.2,0,0,0,11,27.2Z"/><path class="cls-2" d="M13.6,37.3a.6.6,0,0,1-.6-.6V31.3c0-1.9.4-3.3,1.3-4.1a3.1,3.1,0,0,1,2.1-.7.7.7,0,0,1,.6.7.6.6,0,0,1-.7.6,1.3,1.3,0,0,0-1.1.4c-.6.5-.9,1.6-.9,3.1v5.4A.7.7,0,0,1,13.6,37.3Z"/><line class="cls-1" x1="40.5" y1="36" x2="40.5" y2="39.4"/><path class="cls-2" d="M40.5,40a.6.6,0,0,1-.6-.6V36a.6.6,0,0,1,.6-.6.7.7,0,0,1,.7.6v3.4A.7.7,0,0,1,40.5,40Z"/><line class="cls-1" x1="0.7" y1="50.9" x2="52.1" y2="50.9"/><path class="cls-2" d="M52.1,51.5H.6a.6.6,0,0,1-.6-.6.7.7,0,0,1,.6-.7H52.1a.7.7,0,0,1,.7.7A.7.7,0,0,1,52.1,51.5Z"/><path class="cls-1" d="M2.4,44.9h49a0,0,0,0,1,0,0v2.2a3.8,3.8,0,0,1-3.8,3.8H6.2a3.8,3.8,0,0,1-3.8-3.8V44.9A0,0,0,0,1,2.4,44.9Z"/><path class="cls-2" d="M47.6,51.5H6.2a4.3,4.3,0,0,1-4.4-4.4V44.9c0-.4.2-.7.6-.7h49c.4,0,.6.3.6.7v2.2A4.3,4.3,0,0,1,47.6,51.5ZM3,45.5v1.6a3.1,3.1,0,0,0,3.2,3.1H47.6a3.1,3.1,0,0,0,3.2-3.1V45.5Z"/><rect class="cls-1" x="84.9" y="28.5" width="15.4" height="22.38" rx="3.5"/><path class="cls-2" d="M96.7,51.5H88.4a4.2,4.2,0,0,1-4.2-4.2V32a4.1,4.1,0,0,1,4.2-4.1h8.3a4.1,4.1,0,0,1,4.2,4.1V47.3A4.2,4.2,0,0,1,96.7,51.5ZM88.4,29.2A2.9,2.9,0,0,0,85.5,32V47.3a2.9,2.9,0,0,0,2.9,2.9h8.3a2.9,2.9,0,0,0,2.9-2.9V32a2.9,2.9,0,0,0-2.9-2.8Z"/><rect class="cls-1" x="87.6" y="31.3" width="9.9" height="13.95" rx="2.3"/><path class="cls-2" d="M95.2,45.9H90a2.9,2.9,0,0,1-3-3V33.6a3,3,0,0,1,3-3h5.2a3,3,0,0,1,3,3v9.3A2.9,2.9,0,0,1,95.2,45.9ZM90,31.9a1.7,1.7,0,0,0-1.7,1.7v9.3A1.6,1.6,0,0,0,90,44.6h5.2a1.7,1.7,0,0,0,1.7-1.7V33.6a1.8,1.8,0,0,0-1.7-1.7Z"/><circle class="cls-1" cx="92.6" cy="48.1" r="1"/><path class="cls-2" d="M92.6,49.8A1.7,1.7,0,0,1,91,48.1a1.6,1.6,0,0,1,1.6-1.6,1.7,1.7,0,0,1,1.7,1.6A1.8,1.8,0,0,1,92.6,49.8Zm0-2a.4.4,0,0,0,0,.7.4.4,0,0,0,.4-.4A.4.4,0,0,0,92.6,47.8Z"/><line class="cls-1" x1="74.9" y1="50.9" x2="110.3" y2="50.9"/><path class="cls-2" d="M110.3,51.5H74.9a.7.7,0,0,1-.7-.6.7.7,0,0,1,.7-.7h35.4a.7.7,0,0,1,.6.7A.6.6,0,0,1,110.3,51.5Z"/></g></g></svg>