<svg xmlns="http://www.w3.org/2000/svg" viewBox="0 0 71 66.1"><defs><style>.cls-1{fill:#fff;}.cls-2{fill:#4d6291;}.cls-3{fill:#f29291;}.cls-4{fill:#455a80;}.cls-5{opacity:0.2;}</style></defs><title>ico-product thinking</title><g id="Layer_2" data-name="Layer 2"><g id="Capa_3" data-name="Capa 3"><path class="cls-1" d="M61.5,27.8V56.5H3.1V19.7a4.8,4.8,0,0,1,4.8-4.8H54.3"/><path class="cls-2" d="M61.5,57.2H3.1a.7.7,0,0,1-.7-.7V19.7a5.5,5.5,0,0,1,5.5-5.4H54.3a.6.6,0,0,1,.6.6.7.7,0,0,1-.6.7H7.9a4.1,4.1,0,0,0-4.2,4.1V55.9H60.8V27.8a.7.7,0,0,1,.7-.6.6.6,0,0,1,.6.6V56.5A.7.7,0,0,1,61.5,57.2Z"/><rect class="cls-2" x="23.7" y="11.5" width="16.8" height="3.43" rx="1.7"/><path class="cls-2" d="M38.7,15.6H25.4a2.4,2.4,0,1,1,0-4.8H38.7a2.4,2.4,0,0,1,0,4.8ZM25.4,12.1a1.1,1.1,0,1,0,0,2.2H38.7a1.1,1.1,0,1,0,0-2.2Z"/><rect class="cls-1" x="10.3" y="18.8" width="9.5" height="7.47" rx="2.5"/><path class="cls-2" d="M17.3,26.9H12.9a3.2,3.2,0,0,1-3.2-3.2V21.3a3.2,3.2,0,0,1,3.2-3.2h4.4a3.2,3.2,0,0,1,3.2,3.2v2.4A3.2,3.2,0,0,1,17.3,26.9Zm-4.4-7.5A1.9,1.9,0,0,0,11,21.3v2.4a1.9,1.9,0,0,0,1.9,1.9h4.4a2,2,0,0,0,1.9-1.9V21.3a2,2,0,0,0-1.9-1.9Z"/><rect class="cls-1" x="27.3" y="18.8" width="9.5" height="7.47" rx="2.5"/><path class="cls-2" d="M34.3,26.9H29.8a3.1,3.1,0,0,1-3.1-3.2V21.3a3.1,3.1,0,0,1,3.1-3.2h4.5a3.2,3.2,0,0,1,3.2,3.2v2.4A3.2,3.2,0,0,1,34.3,26.9Zm-4.5-7.5A1.9,1.9,0,0,0,28,21.3v2.4a1.9,1.9,0,0,0,1.8,1.9h4.5a2,2,0,0,0,1.9-1.9V21.3a2,2,0,0,0-1.9-1.9Z"/><rect class="cls-1" x="44.3" y="18.8" width="9.5" height="7.47" rx="2.5"/><path class="cls-2" d="M51.2,26.9H46.8a3.2,3.2,0,0,1-3.2-3.2V21.3a3.2,3.2,0,0,1,3.2-3.2h4.4a3.2,3.2,0,0,1,3.2,3.2v2.4A3.2,3.2,0,0,1,51.2,26.9Zm-4.4-7.5a2,2,0,0,0-1.9,1.9v2.4a2,2,0,0,0,1.9,1.9h4.4a1.9,1.9,0,0,0,1.9-1.9V21.3a1.9,1.9,0,0,0-1.9-1.9Z"/><rect class="cls-3" x="10.3" y="32" width="9.5" height="7.47" rx="2.5"/><path class="cls-3" d="M17.3,40.1H12.9a3.2,3.2,0,0,1-3.2-3.2V34.5a3.2,3.2,0,0,1,3.2-3.2h4.4a3.2,3.2,0,0,1,3.2,3.2v2.4A3.2,3.2,0,0,1,17.3,40.1Zm-4.4-7.5A1.9,1.9,0,0,0,11,34.5v2.4a1.8,1.8,0,0,0,1.9,1.9h4.4a1.9,1.9,0,0,0,1.9-1.9V34.5a2,2,0,0,0-1.9-1.9Z"/><rect class="cls-1" x="27.3" y="32" width="9.5" height="7.47" rx="2.5"/><path class="cls-2" d="M34.3,40.1H29.8a3.1,3.1,0,0,1-3.1-3.2V34.5a3.2,3.2,0,0,1,3.1-3.2h4.5a3.3,3.3,0,0,1,3.2,3.2v2.4A3.2,3.2,0,0,1,34.3,40.1Zm-4.5-7.5A1.9,1.9,0,0,0,28,34.5v2.4a1.8,1.8,0,0,0,1.8,1.9h4.5a1.9,1.9,0,0,0,1.9-1.9V34.5a2,2,0,0,0-1.9-1.9Z"/><rect class="cls-1" x="44.3" y="32" width="9.5" height="7.47" rx="2.5"/><path class="cls-2" d="M51.2,40.1H46.8a3.2,3.2,0,0,1-3.2-3.2V34.5a3.3,3.3,0,0,1,3.2-3.2h4.4a3.2,3.2,0,0,1,3.2,3.2v2.4A3.2,3.2,0,0,1,51.2,40.1Zm-4.4-7.5a2,2,0,0,0-1.9,1.9v2.4a1.9,1.9,0,0,0,1.9,1.9h4.4a1.8,1.8,0,0,0,1.9-1.9V34.5a1.9,1.9,0,0,0-1.9-1.9Z"/><rect class="cls-1" x="10.3" y="45.2" width="9.5" height="7.47" rx="2.5"/><path class="cls-2" d="M17.3,53.3H12.9a3.1,3.1,0,0,1-3.2-3.1V47.8a3.2,3.2,0,0,1,3.2-3.2h4.4a3.2,3.2,0,0,1,3.2,3.2v2.4A3.1,3.1,0,0,1,17.3,53.3Zm-4.4-7.4A1.8,1.8,0,0,0,11,47.8v2.4A1.8,1.8,0,0,0,12.9,52h4.4a1.9,1.9,0,0,0,1.9-1.8V47.8a1.9,1.9,0,0,0-1.9-1.9Z"/><rect class="cls-1" x="27.3" y="45.2" width="9.5" height="7.47" rx="2.5"/><path class="cls-2" d="M34.3,53.3H29.8a3.1,3.1,0,0,1-3.1-3.1V47.8a3.1,3.1,0,0,1,3.1-3.2h4.5a3.2,3.2,0,0,1,3.2,3.2v2.4A3.2,3.2,0,0,1,34.3,53.3Zm-4.5-7.4A1.8,1.8,0,0,0,28,47.8v2.4A1.8,1.8,0,0,0,29.8,52h4.5a1.9,1.9,0,0,0,1.9-1.8V47.8a1.9,1.9,0,0,0-1.9-1.9Z"/><rect class="cls-3" x="44.3" y="45.2" width="9.5" height="7.47" rx="2.5"/><path class="cls-3" d="M51.2,53.3H46.8a3.2,3.2,0,0,1-3.2-3.1V47.8a3.2,3.2,0,0,1,3.2-3.2h4.4a3.2,3.2,0,0,1,3.2,3.2v2.4A3.1,3.1,0,0,1,51.2,53.3Zm-4.4-7.4a1.9,1.9,0,0,0-1.9,1.9v2.4A1.9,1.9,0,0,0,46.8,52h4.4a1.8,1.8,0,0,0,1.9-1.8V47.8a1.8,1.8,0,0,0-1.9-1.9Z"/><polyline class="cls-1" points="44.3 65.4 32.1 56.5 32.1 65.4"/><path class="cls-2" d="M44.3,66.1h-.4L32.7,57.8v7.6a.7.7,0,0,1-.6.7.7.7,0,0,1-.7-.7V56.5a.5.5,0,0,1,.4-.5c.2-.2.4-.1.6,0l12.3,8.9a.6.6,0,0,1,.1.9A.5.5,0,0,1,44.3,66.1Z"/><line class="cls-1" x1="21" y1="65.4" x2="32.1" y2="56.5"/><path class="cls-2" d="M21,66.1l-.5-.3a.8.8,0,0,1,.1-.9l11-8.9a.8.8,0,0,1,1,.1.7.7,0,0,1-.1.9l-11,8.9Z"/><path class="cls-4" d="M32.1,11.5H25.4a1.7,1.7,0,0,0-1.7,1.7h0a1.6,1.6,0,0,0,1.7,1.7h6.7l3.8-3.4Z"/><path class="cls-4" d="M32.2,15.4H25.4a2.2,2.2,0,1,1,0-4.4H37.2ZM25.4,12a1.2,1.2,0,1,0,0,2.4h6.5L34.6,12Z"/><rect class="cls-1" x="59" y="24.3" width="4.7" height="3.5"/><path class="cls-2" d="M63.7,28.5H59a.7.7,0,0,1-.6-.7V24.3a.6.6,0,0,1,.6-.6h4.7a.7.7,0,0,1,.7.6v3.5A.7.7,0,0,1,63.7,28.5Zm-4-1.3h3.4V25H59.7Z"/><g class="cls-5"><path class="cls-2" d="M70.4,9.6a9,9,0,0,0-17.9,0,9.1,9.1,0,0,0,5,8v1.9h7.6V17.7A8.9,8.9,0,0,0,70.4,9.6Z"/><path class="cls-2" d="M65.1,20.2H57.5a.7.7,0,0,1-.6-.7V18a9.6,9.6,0,1,1,8.9.1v1.4A.7.7,0,0,1,65.1,20.2Zm-6.9-1.3h6.3V17.7a.6.6,0,0,1,.4-.6A8.3,8.3,0,1,0,53.2,9.6,8.1,8.1,0,0,0,57.8,17a.8.8,0,0,1,.4.6Z"/></g><path class="cls-2" d="M65.1,20.2H57.5a.7.7,0,0,1-.6-.7V18A9.6,9.6,0,0,1,61.5,0a.7.7,0,0,1,.6.7.6.6,0,0,1-.6.6,8.3,8.3,0,0,0-8.3,8.3A8.1,8.1,0,0,0,57.8,17a.8.8,0,0,1,.4.6v1.3h6.3V17.7a.6.6,0,0,1,.4-.6,8.3,8.3,0,0,0,4.8-7.5.7.7,0,0,1,.7-.7.7.7,0,0,1,.6.7,9.5,9.5,0,0,1-5.2,8.5v1.4A.7.7,0,0,1,65.1,20.2Z"/><path class="cls-2" d="M58.3,12.6a2.5,2.5,0,1,1,2.5-2.5A2.5,2.5,0,0,1,58.3,12.6Zm0-3.7a1.2,1.2,0,0,0-1.2,1.2,1.2,1.2,0,0,0,1.2,1.2,1.2,1.2,0,0,0,1.2-1.2A1.3,1.3,0,0,0,58.3,8.9Z"/><path class="cls-2" d="M64.4,12.6a2.5,2.5,0,0,1,0-5,2.5,2.5,0,0,1,0,5Zm0-3.7a1.2,1.2,0,0,0-1.2,1.2,1.2,1.2,0,0,0,1.2,1.2,1.2,1.2,0,0,0,1.2-1.2A1.3,1.3,0,0,0,64.4,8.9Z"/><path class="cls-2" d="M63.2,20.2H59.4a.7.7,0,0,1-.6-.7V12.8a1.8,1.8,0,0,1,1.8-1.9H62a1.9,1.9,0,0,1,1.9,1.9v6.7A.7.7,0,0,1,63.2,20.2Zm-3.1-1.3h2.5V12.8a.6.6,0,0,0-.6-.6H60.6c-.3,0-.5.2-.5.6Z"/><rect class="cls-4" x="56.1" y="22.5" width="10.4" height="2" rx="1"/><path class="cls-4" d="M65.5,25H57.1a1.5,1.5,0,0,1-1.5-1.5A1.5,1.5,0,0,1,57.1,22h8.4A1.5,1.5,0,0,1,67,23.5,1.5,1.5,0,0,1,65.5,25Zm-8.4-2a.5.5,0,1,0,0,1h8.4a.5.5,0,0,0,0-1Z"/><rect class="cls-2" x="56.1" y="19.5" width="10.4" height="2" rx="1"/><path class="cls-2" d="M65.5,22H57.1a1.5,1.5,0,0,1-1.5-1.5A1.5,1.5,0,0,1,57.1,19h8.4A1.5,1.5,0,0,1,67,20.5,1.5,1.5,0,0,1,65.5,22Zm-8.4-2a.5.5,0,1,0,0,1h8.4a.5.5,0,0,0,0-1Z"/><polygon class="cls-1" points="2.9 33.3 5.4 37.2 0.7 37.2 2.9 33.3"/><path class="cls-2" d="M.7,37.9a.6.6,0,0,1-.6-.3.9.9,0,0,1,0-.7L2.4,33a.5.5,0,0,1,.5-.3.7.7,0,0,1,.6.3l2.4,3.9a.5.5,0,0,1,.1.6.8.8,0,0,1-.6.4ZM3,34.6l-1.2,2H4.2Z"/><path class="cls-1" d="M5.4,37.2c.2.4-.1,22.3-.1,22.3H.8V37.2Z"/><path class="cls-2" d="M5.3,60.2H.8c-.4,0-.7-.2-.7-.6V37.2a.8.8,0,0,1,.2-.4l.4-.2H5.4a.5.5,0,0,1,.5.3c.2.2.4.5.1,22.6A.7.7,0,0,1,5.3,60.2ZM1.4,58.8H4.7c.1-7.7.2-18.5.1-21H1.3Z"/><line class="cls-1" x1="2.4" y1="57.8" x2="5.4" y2="57.8"/><path class="cls-2" d="M5.4,58.5h-3a.6.6,0,0,1-.6-.6.7.7,0,0,1,.6-.7h3a.6.6,0,0,1,.6.6A.7.7,0,0,1,5.4,58.5Z"/><path class="cls-1" d="M.8,59.5H5.4a0,0,0,0,1,0,0v2.6a1.5,1.5,0,0,1-1.5,1.5H2.3A1.5,1.5,0,0,1,.8,62.1V59.5a0,0,0,0,1,0,0Z"/><path class="cls-2" d="M3.8,64.2H2.3A2.1,2.1,0,0,1,.1,62.1V59.5a.7.7,0,0,1,.7-.7H5.4a.7.7,0,0,1,.6.7v2.6A2.1,2.1,0,0,1,3.8,64.2ZM1.4,60.1v2a.9.9,0,0,0,.9.8H3.8a.9.9,0,0,0,.9-.8v-2Z"/><line class="cls-1" x1="10.3" y1="65.4" x2="53.8" y2="65.4"/><path class="cls-2" d="M53.8,66.1H10.3a.7.7,0,0,1-.6-.7.6.6,0,0,1,.6-.6H53.8a.6.6,0,0,1,.6.6A.7.7,0,0,1,53.8,66.1Z"/></g></g></svg>