<svg xmlns="http://www.w3.org/2000/svg" viewBox="0 0 57.9 70.4"><defs><style>.cls-1{opacity:0.2;}.cls-2{fill:#4d6291;}.cls-3{fill:#fff;}.cls-4{fill:#f29291;}.cls-5{fill:#455a80;}</style></defs><title>ico-branding_1</title><g id="Layer_2" data-name="Layer 2"><g id="Capa_3" data-name="Capa 3"><g class="cls-1"><path class="cls-2" d="M6,22.5V69.7S.7,69.9.7,63.3V15.5H6Z"/><path class="cls-2" d="M6,70.4a6.1,6.1,0,0,1-4.1-1.7C.6,67.5,0,65.7,0,63.3V15.5a.7.7,0,0,1,.7-.6H6a.7.7,0,0,1,.7.6V69.7c0,.4-.3.6-.7.7Zm0-.7ZM1.3,16.2V63.3a6.1,6.1,0,0,0,1.5,4.5A5,5,0,0,0,5.4,69V16.2Z"/></g><path class="cls-2" d="M6,70.4a6.1,6.1,0,0,1-4.1-1.7C.6,67.5,0,65.7,0,63.3a.7.7,0,0,1,.7-.6.6.6,0,0,1,.6.6,6.1,6.1,0,0,0,1.5,4.5A5,5,0,0,0,5.4,69V16.2H1.3V30.3a.7.7,0,0,1-.6.7.7.7,0,0,1-.7-.7V15.5a.7.7,0,0,1,.7-.6H6a.7.7,0,0,1,.7.6V69.7c0,.4-.3.6-.7.7Z"/><path class="cls-2" d="M.7,42.4a.7.7,0,0,1-.7-.7V37a.7.7,0,0,1,.7-.6.6.6,0,0,1,.6.6v4.7A.7.7,0,0,1,.7,42.4Z"/><path class="cls-3" d="M6,64.5H40.3a3.8,3.8,0,0,0,3.8-3.8V11.2H6c-7.7,0-6.6,11.1,0,11.3Z"/><path class="cls-2" d="M40.3,65.1H6a.6.6,0,0,1-.6-.6V23.1C1.9,22.7,0,19.4,0,16.4a5.6,5.6,0,0,1,6-5.8H44.1a.7.7,0,0,1,.7.6V60.7A4.5,4.5,0,0,1,40.3,65.1ZM6.7,63.8H40.3a3.1,3.1,0,0,0,3.2-3.1V11.9H6c-3.4,0-4.7,2.3-4.7,4.5S2.9,21.8,6,21.9a.7.7,0,0,1,.7.6Z"/><circle class="cls-3" cx="14" cy="20.2" r="2.9"/><path class="cls-2" d="M14,23.8a3.6,3.6,0,1,1,3.6-3.6A3.6,3.6,0,0,1,14,23.8ZM14,18a2.3,2.3,0,1,0,0,4.5A2.3,2.3,0,1,0,14,18Z"/><line class="cls-3" x1="21" y1="18.4" x2="33.8" y2="18.4"/><path class="cls-2" d="M33.8,19.1H21a.7.7,0,0,1-.7-.7.7.7,0,0,1,.7-.6H33.8a.6.6,0,0,1,.6.6A.7.7,0,0,1,33.8,19.1Z"/><line class="cls-3" x1="21" y1="21.3" x2="27.6" y2="21.3"/><path class="cls-2" d="M27.6,21.9H21c-.4,0-.7-.2-.7-.6a.7.7,0,0,1,.7-.7h6.6a.7.7,0,0,1,.7.7C28.3,21.7,28,21.9,27.6,21.9Z"/><circle class="cls-4" cx="14" cy="32.4" r="2.9"/><path class="cls-4" d="M14,36a3.6,3.6,0,1,1,3.6-3.6A3.6,3.6,0,0,1,14,36Zm0-5.8a2.3,2.3,0,1,0,0,4.5,2.3,2.3,0,1,0,0-4.5Z"/><circle class="cls-3" cx="14" cy="44.7" r="2.9"/><path class="cls-2" d="M14,48.2a3.6,3.6,0,1,1,3.6-3.5A3.6,3.6,0,0,1,14,48.2Zm0-5.8a2.3,2.3,0,1,0,0,4.5,2.3,2.3,0,1,0,0-4.5Z"/><line class="cls-3" x1="21" y1="42.9" x2="33.8" y2="42.9"/><path class="cls-2" d="M33.8,43.5H21a.7.7,0,0,1-.7-.6.7.7,0,0,1,.7-.7H33.8a.7.7,0,0,1,.6.7A.6.6,0,0,1,33.8,43.5Z"/><line class="cls-3" x1="21" y1="45.7" x2="27.6" y2="45.7"/><path class="cls-2" d="M27.6,46.4H21a.7.7,0,0,1-.7-.7.7.7,0,0,1,.7-.6h6.6a.7.7,0,0,1,.7.6A.7.7,0,0,1,27.6,46.4Z"/><circle class="cls-3" cx="14" cy="56.9" r="2.9"/><path class="cls-2" d="M14,60.5a3.6,3.6,0,1,1,3.6-3.6A3.6,3.6,0,0,1,14,60.5Zm0-5.9a2.3,2.3,0,0,0-2.3,2.3A2.3,2.3,0,0,0,14,59.2a2.4,2.4,0,0,0,2.3-2.3A2.3,2.3,0,0,0,14,54.6Z"/><line class="cls-3" x1="21" y1="55.1" x2="33.8" y2="55.1"/><path class="cls-2" d="M33.8,55.7H21a.7.7,0,0,1-.7-.6.7.7,0,0,1,.7-.7H33.8a.7.7,0,0,1,.6.7A.6.6,0,0,1,33.8,55.7Z"/><line class="cls-3" x1="21" y1="58" x2="27.6" y2="58"/><path class="cls-2" d="M27.6,58.6H21a.7.7,0,0,1-.7-.6.7.7,0,0,1,.7-.7h6.6a.7.7,0,0,1,.7.7A.7.7,0,0,1,27.6,58.6Z"/><polygon class="cls-3" points="21 35.4 23.9 29.5 26.8 35.4 21 35.4"/><path class="cls-4" d="M26.8,36H21a.7.7,0,0,1-.6-.3.6.6,0,0,1,0-.6l2.9-5.9a.7.7,0,0,1,1.2,0l2.9,5.9a.6.6,0,0,1,0,.6A.9.9,0,0,1,26.8,36ZM22,34.7h3.8L23.9,31Z"/><polygon class="cls-3" points="23.9 32.5 24 32.5 23.9 33.1 23.8 32.5 23.9 32.5"/><path class="cls-4" d="M23.9,33.4h0l-.3-.2v-.7c0-.1.1-.1.1-.2h.6c0,.1.1.1,0,.2v.7A.2.2,0,0,1,23.9,33.4Z"/><circle class="cls-3" cx="23.9" cy="33.9"/><path class="cls-4" d="M23.9,34.2a.3.3,0,0,1-.3-.3.3.3,0,1,1,.6,0A.3.3,0,0,1,23.9,34.2Zm0-.5a.2.2,0,1,0,.2.2A.2.2,0,0,0,23.9,33.7Z"/><polygon class="cls-3" points="34.3 55.5 35.4 51 38.7 54.4 34.3 55.5"/><path class="cls-2" d="M34.3,56.1h-.4a.6.6,0,0,1-.2-.7l1-4.4a.8.8,0,0,1,.5-.5c.2-.1.4,0,.6.2l3.4,3.3a.7.7,0,0,1,.1.6c0,.3-.2.4-.4.5l-4.4,1.1Zm1.4-3.8-.5,2.3,2.2-.6Z"/><path class="cls-3" d="M35.4,51c0-.4,15.9-15.6,15.9-15.6l3.2,3.2L38.7,54.4Z"/><path class="cls-2" d="M38.7,55c-.2,0-.3,0-.4-.2l-3.4-3.3a.7.7,0,0,1-.2-.6c.1-.3.1-.6,16.1-16a.6.6,0,0,1,.9,0l3.2,3.3a.6.6,0,0,1,0,.9L39.2,54.8A.6.6,0,0,1,38.7,55Zm-2.5-4,2.5,2.5L53.5,38.6l-2.3-2.3C45.7,41.6,38,49.1,36.2,51Z"/><line class="cls-3" x1="52.1" y1="38.6" x2="50" y2="36.5"/><path class="cls-2" d="M52.1,39.3l-.5-.2-2-2.1a.6.6,0,1,1,.9-.9l2,2.1a.6.6,0,0,1,0,.9Z"/><path class="cls-3" d="M51.3,35.4l3.2,3.2,2.3-2.2a1.4,1.4,0,0,0,.1-2l-1.3-1.3a1.4,1.4,0,0,0-2-.1Z"/><path class="cls-2" d="M54.5,39.3l-.5-.2-3.2-3.3a.6.6,0,0,1,0-.9l2.4-2.3a2.2,2.2,0,0,1,1.5-.6,2,2,0,0,1,1.4.6L57.4,34a2,2,0,0,1-.1,2.8l-2.4,2.3Zm-2.3-3.9,2.3,2.3,1.9-1.8a.7.7,0,0,0,0-1l-1.2-1.4-.6-.2c-.2,0-.4,0-.5.2Z"/><circle class="cls-2" cx="43.6" cy="11.1" r="9.6"/><path class="cls-2" d="M43.6,22.1A11.1,11.1,0,0,1,43.6,0a11.1,11.1,0,1,1,0,22.1ZM43.6,3a8.1,8.1,0,1,0,8.1,8.1A8,8,0,0,0,43.6,3Z"/><path class="cls-5" d="M43.6,1.5a9.6,9.6,0,0,0,0,19.1L50.1,4S48.5,1.5,43.6,1.5Z"/><path class="cls-5" d="M44.7,22.1H43.6a11,11,0,0,1-11-11A10.9,10.9,0,0,1,43.7,0h0c5.5,0,7.4,2.9,7.7,3.2l.4.6ZM43.6,3A7.9,7.9,0,0,0,38,5.3a8,8,0,0,0-2.4,5.8,8.1,8.1,0,0,0,7,8L48.3,4.3A7.2,7.2,0,0,0,43.6,3Z"/><circle class="cls-3" cx="43.6" cy="11.3" r="6.4"/><path class="cls-3" d="M43.6,18.4a7,7,0,0,1-7-7.1,7.1,7.1,0,1,1,7,7.1Zm0-12.9a5.8,5.8,0,1,0,5.8,5.8A5.8,5.8,0,0,0,43.6,5.5Z"/><polyline class="cls-3" points="41.3 13.5 43.6 11.6 43.6 8.2"/><path class="cls-2" d="M41.2,14.1l-.5-.2a.7.7,0,0,1,.2-.9L43,11.3V8.2a.6.6,0,0,1,.6-.6.7.7,0,0,1,.7.6v3.4a.9.9,0,0,1-.3.6L41.6,14Z"/></g></g></svg>