<?xml version="1.0" encoding="UTF-8"?>
<svg width="26px" height="19px" viewBox="0 0 26 19" version="1.1" xmlns="http://www.w3.org/2000/svg" xmlns:xlink="http://www.w3.org/1999/xlink">
    <!-- Generator: Sketch 56.3 (81716) - https://sketch.com -->
    <title>email</title>
    <desc>Created with Sketch.</desc>
    <g id="Page-1" stroke="none" stroke-width="1" fill="none" fill-rule="evenodd">
        <g id="Mobile" transform="translate(-66.000000, -6568.000000)" fill="#36477F">
            <g id="Group-19" transform="translate(66.145361, 6564.254253)">
                <g id="Group-14">
                    <g id="Group-9">
                        <g id="email" transform="translate(0.000000, 4.000000)">
                            <g id="iconfinder_Streamline-58_185078">
                                <path d="M22.9166667,18 L2.08333333,18 C0.934375,18 0,16.990875 0,15.75 L0,2.25 C0,1.009125 0.934375,0 2.08333333,0 L22.9166667,0 C24.065625,0 25,1.009125 25,2.25 L25,15.75 C25,16.990875 24.065625,18 22.9166667,18 Z M2.08333333,1.125 C1.50885417,1.125 1.04166667,1.6295625 1.04166667,2.25 L1.04166667,15.75 C1.04166667,16.3704375 1.50885417,16.875 2.08333333,16.875 L22.9166667,16.875 C23.4911458,16.875 23.9583333,16.3704375 23.9583333,15.75 L23.9583333,2.25 C23.9583333,1.6295625 23.4911458,1.125 22.9166667,1.125 L2.08333333,1.125 Z" id="Shape" fill-rule="nonzero"></path>
                                <path d="M12.5,11.9199375 L3.36302083,5.535 C3.12135417,5.3656875 3.05208333,5.0180625 3.20833333,4.7570625 C3.36458333,4.4960625 3.68697917,4.4218125 3.92864583,4.59 L12.5,10.5800625 L21.0713542,4.59 C21.3130208,4.4218125 21.6354167,4.4960625 21.7916667,4.7570625 C21.9479167,5.0180625 21.8786458,5.3656875 21.6369792,5.535 L12.5,11.9199375 Z" id="Path" fill-rule="nonzero"></path>
                                <path d="M3.12552083,14.625 C2.95729167,14.625 2.79166667,14.53725 2.69166667,14.3746875 C2.53177083,14.1159375 2.59635417,13.7671875 2.8359375,13.5945 L7.5234375,10.2195 C7.76302083,10.0468125 8.08645833,10.1165625 8.24583333,10.3753125 C8.40572917,10.6340625 8.34114583,10.9828125 8.1015625,11.1555 L3.4140625,14.5305 C3.325,14.5940625 3.22447917,14.625 3.12552083,14.625 Z" id="Path" fill-rule="nonzero"></path>
                                <path d="M21.8744792,14.625 C21.7755208,14.625 21.675,14.5940625 21.5859375,14.5305 L16.8984375,11.1555 C16.6588542,10.9828125 16.5942708,10.6340625 16.7541667,10.3753125 C16.9135417,10.1165625 17.2364583,10.0468125 17.4765625,10.2195 L22.1640625,13.5945 C22.4036458,13.7671875 22.4682292,14.1159375 22.3083333,14.3746875 C22.2083333,14.53725 22.0427083,14.625 21.8744792,14.625 Z" id="Path" fill-rule="nonzero"></path>
                            </g>
                        </g>
                    </g>
                </g>
            </g>
        </g>
    </g>
</svg>