<?xml version="1.0" encoding="UTF-8"?>
<svg width="26px" height="26px" viewBox="0 0 26 26" version="1.1" xmlns="http://www.w3.org/2000/svg" xmlns:xlink="http://www.w3.org/1999/xlink">
    <!-- Generator: Sketch 56.3 (81716) - https://sketch.com -->
    <title>telefono</title>
    <desc>Created with Sketch.</desc>
    <g id="Page-1" stroke="none" stroke-width="1" fill="none" fill-rule="evenodd">
        <g id="Mobile" transform="translate(-66.000000, -6609.000000)" fill="#36477F">
            <g id="Group-19" transform="translate(66.145361, 6564.254253)">
                <g id="Group-14">
                    <g id="Group-8" transform="translate(0.000000, 45.000000)">
                        <g id="telefono">
                            <g id="iconfinder_icon-ios7-telephone-outline_211829">
                                <path d="M23.8585579,18.1392045 C22.8217626,17.0738636 19.8747077,15.078125 17.9431439,15.078125 C17.4957597,15.078125 17.1051861,15.1775568 16.785626,15.3835227 C15.8411481,15.9872159 15.0884064,16.4559659 14.7262382,16.4559659 C14.5274007,16.4559659 14.3143606,16.2784091 13.8456723,15.8735795 L13.7675576,15.8025568 C12.4680129,14.6732955 12.1910608,14.3821023 11.6868658,13.8565341 L11.5590418,13.7215909 C11.4667244,13.6292614 11.3886097,13.5440341 11.310495,13.4659091 C10.870212,13.0113636 10.5506519,12.6846591 9.42153924,11.40625 L9.37182988,11.3494318 C8.83212825,10.7386364 8.47706139,10.3409091 8.45575738,10.0497159 C8.43445337,9.765625 8.68300017,9.30397727 9.31501919,8.44460227 C10.0819636,7.40767045 10.110369,6.12926136 9.40733657,4.64488636 C8.84633093,3.47301136 7.93025842,2.35085227 7.12070598,1.36363636 L7.0496926,1.27840909 C6.35376155,0.426136364 5.54420911,0 4.64233928,0 C3.64105072,0 2.81019427,0.539772727 2.36991136,0.823863636 C2.33440467,0.845170455 2.29889799,0.873579545 2.2633913,0.894886364 C1.27630542,1.51988636 0.55907036,2.37926136 0.289219544,3.25284091 C-0.115556679,4.56676136 -0.385407494,6.27130682 1.55325757,9.81534091 C3.22917316,12.8835227 4.74885934,14.9431818 7.163314,17.421875 C9.43574192,19.7514205 10.4441318,20.5042614 12.7023571,22.1377841 C15.2162304,23.9559659 17.6306851,25 19.3208034,25 C20.8901989,25 22.1258316,25 23.8869632,22.8764205 C25.7333109,20.6463068 24.9663665,19.2826705 23.8585579,18.1392045 Z M23.0419041,22.109375 C21.6216366,23.828125 20.8049829,23.828125 19.3279047,23.828125 C17.8863332,23.828125 15.649412,22.8338068 13.3485787,21.1789773 C11.1471642,19.5880682 10.1671797,18.8565341 7.95866377,16.5909091 C5.62232382,14.1974432 4.15234701,12.2017045 2.53324211,9.24005682 C0.821819838,6.10795455 1.01355594,4.73721591 1.36152147,3.60795455 C1.54615624,3.00426136 2.10006054,2.35795455 2.85280229,1.88920455 C2.88830898,1.86789773 2.92381566,1.83948864 2.96642369,1.81818182 C3.34279456,1.57670455 3.96771224,1.171875 4.64944061,1.171875 C5.21754759,1.171875 5.72174254,1.45596591 6.20463347,2.04545455 L6.27564684,2.13068182 C8.08648784,4.34659091 9.49965395,6.30681818 8.43445337,7.75568182 C7.68171162,8.77130682 7.28403673,9.46022727 7.34794877,10.1704545 C7.40475947,10.859375 7.86634639,11.3778409 8.56227744,12.1590909 L8.6119868,12.2159091 C9.75530209,13.5085227 10.0819636,13.8494318 10.5364492,14.3110795 C10.6145639,14.3892045 10.6926786,14.4744318 10.784996,14.5667614 L10.9128201,14.7017045 C11.438319,15.2485795 11.7294738,15.546875 13.0645253,16.71875 L13.14264,16.7897727 C13.7107469,17.2869318 14.1297258,17.6491477 14.7404408,17.6491477 C15.3724599,17.6491477 16.0683909,17.2514205 17.3892396,16.40625 C17.524165,16.3210227 17.7159011,16.2713068 17.9573466,16.2713068 C19.4983368,16.2713068 22.1542369,18.0326705 23.0845121,18.9914773 C23.9366726,19.8579545 24.3627528,20.5113636 23.0419041,22.109375 Z" id="Shape" fill-rule="nonzero"></path>
                            </g>
                        </g>
                    </g>
                </g>
            </g>
        </g>
    </g>
</svg>