<?xml version="1.0" encoding="UTF-8"?>
<svg width="19px" height="27px" viewBox="0 0 19 27" version="1.1" xmlns="http://www.w3.org/2000/svg" xmlns:xlink="http://www.w3.org/1999/xlink">
    <!-- Generator: Sketch 56.3 (81716) - https://sketch.com -->
    <title>ubicacion</title>
    <desc>Created with Sketch.</desc>
    <g id="Page-1" stroke="none" stroke-width="1" fill="none" fill-rule="evenodd">
        <g id="Mobile" transform="translate(-66.000000, -6657.000000)" fill="#36477F">
            <g id="Group-19" transform="translate(66.145361, 6564.254253)">
                <g id="Group-14">
                    <g id="Group-10" transform="translate(0.000000, 93.000000)">
                        <g id="ubicacion">
                            <g id="iconfinder_Streamline-20_185040">
                                <path d="M9,26.8644375 L8.5370625,26.1945 C8.188875,25.6899375 0,13.7806875 0,9 C0,4.037625 4.037625,0 9,0 C13.962375,0 18,4.037625 18,9 C18,13.7806875 9.811125,25.6899375 9.4629375,26.1945 L9,26.8644375 Z M9,1.125 C4.6575,1.125 1.125,4.6575 1.125,9 C1.125,12.8176875 7.2478125,22.2496875 9,24.870375 C10.7521875,22.2496875 16.875,12.8176875 16.875,9 C16.875,4.6575 13.3425,1.125 9,1.125 Z" id="Shape" fill-rule="nonzero"></path>
                                <path d="M9,12.9375 C6.8293125,12.9375 5.0625,11.17125 5.0625,9 C5.0625,6.82875 6.8293125,5.0625 9,5.0625 C11.1706875,5.0625 12.9375,6.82875 12.9375,9 C12.9375,11.17125 11.1706875,12.9375 9,12.9375 Z M9,6.1875 C7.4491875,6.1875 6.1875,7.4491875 6.1875,9 C6.1875,10.5508125 7.4491875,11.8125 9,11.8125 C10.5508125,11.8125 11.8125,10.5508125 11.8125,9 C11.8125,7.4491875 10.5508125,6.1875 9,6.1875 Z" id="Shape" fill-rule="nonzero"></path>
                            </g>
                        </g>
                    </g>
                </g>
            </g>
        </g>
    </g>
</svg>