<svg xmlns="http://www.w3.org/2000/svg" viewBox="0 0 37.72 31.07"><defs><style>.a8cb6bef-c258-464a-b41f-0ed6912ebb3e{fill:#fff;}.bbe06133-2689-4b91-837d-6dcde70e2bc2{fill:#4d6293;}.bd84a72c-15f4-4824-b9da-5d7e787b1fba{fill:#faa65c;}.e8dc4aaa-8588-4182-8957-52ca2f66e86b{opacity:0.2;}.f22a0833-f288-49e8-9c7c-4dfba12d5826{fill:#4d6291;}</style></defs><title>ÍCONO-</title><g id="b804db71-95f1-4966-bd08-d42c561976cf" data-name="Capa 3"><path class="a8cb6bef-c258-464a-b41f-0ed6912ebb3e" d="M7.4,3.46H30.34a3.89,3.89,0,0,1,3.89,3.89V24.11a0,0,0,0,1,0,0H3.51a0,0,0,0,1,0,0V7.35A3.89,3.89,0,0,1,7.4,3.46Z"/><path class="bbe06133-2689-4b91-837d-6dcde70e2bc2" d="M34.23,24.76H3.51a.66.66,0,0,1-.66-.65V7.35A4.55,4.55,0,0,1,7.4,2.81H30.34a4.55,4.55,0,0,1,4.54,4.54V24.11A.65.65,0,0,1,34.23,24.76ZM4.16,23.47H33.58V7.35a3.25,3.25,0,0,0-3.24-3.24H7.4A3.25,3.25,0,0,0,4.16,7.35Z"/><path class="bd84a72c-15f4-4824-b9da-5d7e787b1fba" d="M.65,12A.65.65,0,0,1,0,11.38v-5C.26,2.67,2.93,0,6.35,0H7.48a.66.66,0,0,1,.66.65.66.66,0,0,1-.66.65H6.35c-2.76,0-4.84,2.12-5,5.14v4.94A.65.65,0,0,1,.65,12Z"/><g class="e8dc4aaa-8588-4182-8957-52ca2f66e86b"><path class="f22a0833-f288-49e8-9c7c-4dfba12d5826" d="M10.12,6.36h19a1.92,1.92,0,0,1,1.92,1.92v13a0,0,0,0,1,0,0H6.58a0,0,0,0,1,0,0V9.9A3.54,3.54,0,0,1,10.12,6.36Z"/><path class="f22a0833-f288-49e8-9c7c-4dfba12d5826" d="M31.08,21.94H6.58a.65.65,0,0,1-.65-.65V9.9a4.2,4.2,0,0,1,4.19-4.19h19a2.57,2.57,0,0,1,2.57,2.57v13A.65.65,0,0,1,31.08,21.94ZM7.23,20.64h23.2V8.28A1.27,1.27,0,0,0,29.16,7h-19A2.9,2.9,0,0,0,7.23,9.9Z"/></g><path class="bbe06133-2689-4b91-837d-6dcde70e2bc2" d="M31.09,21.92H21a.65.65,0,1,1,0-1.3h9.48v-6.4a.65.65,0,1,1,1.3,0v7A.65.65,0,0,1,31.09,21.92Z"/><path class="bbe06133-2689-4b91-837d-6dcde70e2bc2" d="M6.58,11.87a.65.65,0,0,1-.65-.65V8.29A2.59,2.59,0,0,1,8.51,5.71h9.36a.65.65,0,1,1,0,1.3H8.51A1.28,1.28,0,0,0,7.23,8.29v2.93A.65.65,0,0,1,6.58,11.87Z"/><polygon class="a8cb6bef-c258-464a-b41f-0ed6912ebb3e" points="16.68 24.11 15.75 30.42 21.58 30.42 20.58 24.11 16.68 24.11"/><path class="bbe06133-2689-4b91-837d-6dcde70e2bc2" d="M21.58,31.06H15.75a.64.64,0,0,1-.63-.73L16.05,24a.64.64,0,0,1,.63-.54h3.9a.64.64,0,0,1,.64.54l1,6.3a.66.66,0,0,1-.15.52A.64.64,0,0,1,21.58,31.06Zm-5.09-1.28h4.34l-.79-5H17.23Z"/><path class="bbe06133-2689-4b91-837d-6dcde70e2bc2" d="M23.84,31.07H13.64a.65.65,0,0,1,0-1.3h10.2a.65.65,0,1,1,0,1.3Z"/><path class="bbe06133-2689-4b91-837d-6dcde70e2bc2" d="M21.11,28.76H18.82a.65.65,0,0,1,0-1.3h2.29a.65.65,0,0,1,0,1.3Z"/><path class="bbe06133-2689-4b91-837d-6dcde70e2bc2" d="M9.57,19.24A.68.68,0,0,1,9,19a.66.66,0,0,1,.18-.9L18.3,12a.65.65,0,0,1,.76,0l3.45,2.71,5.08-4.75a.65.65,0,0,1,.92,0,.66.66,0,0,1,0,.92L23,16a.64.64,0,0,1-.84,0l-3.52-2.76-8.7,5.84A.61.61,0,0,1,9.57,19.24Z"/><circle class="a8cb6bef-c258-464a-b41f-0ed6912ebb3e" cx="9.57" cy="18.6" r="1.11"/><path class="bbe06133-2689-4b91-837d-6dcde70e2bc2" d="M9.56,20.36a1.77,1.77,0,1,1,1.77-1.77A1.76,1.76,0,0,1,9.56,20.36Zm0-2.23a.47.47,0,1,0,.47.46A.47.47,0,0,0,9.56,18.13Z"/><circle class="a8cb6bef-c258-464a-b41f-0ed6912ebb3e" cx="14.22" cy="15.33" r="1.11"/><path class="bbe06133-2689-4b91-837d-6dcde70e2bc2" d="M14.22,17.09A1.76,1.76,0,1,1,16,15.33,1.76,1.76,0,0,1,14.22,17.09Zm0-2.22a.46.46,0,0,0-.46.46.45.45,0,0,0,.46.46.46.46,0,0,0,.46-.46A.47.47,0,0,0,14.22,14.87Z"/><circle class="a8cb6bef-c258-464a-b41f-0ed6912ebb3e" cx="22.55" cy="15.33" r="1.11"/><path class="bbe06133-2689-4b91-837d-6dcde70e2bc2" d="M22.55,17.09a1.76,1.76,0,1,1,1.76-1.76A1.76,1.76,0,0,1,22.55,17.09Zm0-2.22a.46.46,0,0,0-.46.46.45.45,0,0,0,.46.46.46.46,0,0,0,.46-.46A.47.47,0,0,0,22.55,14.87Z"/><circle class="a8cb6bef-c258-464a-b41f-0ed6912ebb3e" cx="18.66" cy="12.49" r="1.11"/><path class="bbe06133-2689-4b91-837d-6dcde70e2bc2" d="M18.66,14.25a1.76,1.76,0,1,1,1.76-1.76A1.76,1.76,0,0,1,18.66,14.25Zm0-2.22a.46.46,0,0,0-.46.46.46.46,0,0,0,.92,0A.46.46,0,0,0,18.66,12Z"/><circle class="a8cb6bef-c258-464a-b41f-0ed6912ebb3e" cx="28.03" cy="10.4" r="1.11"/><path class="bbe06133-2689-4b91-837d-6dcde70e2bc2" d="M28,12.16a1.76,1.76,0,1,1,1.76-1.76A1.76,1.76,0,0,1,28,12.16Zm0-2.22a.47.47,0,0,0-.46.46.46.46,0,0,0,.46.46.45.45,0,0,0,.46-.46A.46.46,0,0,0,28,9.94Z"/><path class="bd84a72c-15f4-4824-b9da-5d7e787b1fba" d="M36.74,27.55h-6.5a.65.65,0,0,1,0-1.3h6.18V23.47a.65.65,0,1,1,1.3,0v3.11A1,1,0,0,1,36.74,27.55Z"/></g></svg>