<svg xmlns="http://www.w3.org/2000/svg" viewBox="0 0 21.52 33.56"><defs><style>.af1c07cb-73f8-4488-b171-725a734567ef{fill:#fff;}.b6efb878-7713-4b35-ac3b-23f6cf25519d{fill:#4d6291;}.b9b67b96-8360-4a47-80e0-64e23c4815e3{opacity:0.2;}.b6a4e355-978b-4f27-b49e-21b53dfd24e3{fill:#faa65c;}</style></defs><title>ÍCONO-</title><g id="f90fc329-d265-4e07-9da0-ef7f388e49fd" data-name="Capa 3"><rect class="af1c07cb-73f8-4488-b171-725a734567ef" x="7.15" y="26.64" width="4.69" height="3.5"/><path class="b6efb878-7713-4b35-ac3b-23f6cf25519d" d="M11.84,30.79H7.15a.65.65,0,0,1-.65-.65v-3.5A.65.65,0,0,1,7.15,26h4.69a.65.65,0,0,1,.65.65v3.5A.65.65,0,0,1,11.84,30.79Zm-4-1.3h3.39v-2.2H7.8Z"/><g class="b9b67b96-8360-4a47-80e0-64e23c4815e3"><path class="b6efb878-7713-4b35-ac3b-23f6cf25519d" d="M18.52,11.9a8.94,8.94,0,1,0-12.87,8v1.92h7.62V20A8.94,8.94,0,0,0,18.52,11.9Z"/><path class="b6efb878-7713-4b35-ac3b-23f6cf25519d" d="M13.28,22.49H5.65A.65.65,0,0,1,5,21.84V20.31A9.58,9.58,0,1,1,19.18,11.9a9.62,9.62,0,0,1-5.25,8.55v1.39A.66.66,0,0,1,13.28,22.49Zm-7-1.3h6.32V20a.63.63,0,0,1,.39-.59,8.29,8.29,0,1,0-7.07-.11.64.64,0,0,1,.36.58Z"/></g><path class="b6a4e355-978b-4f27-b49e-21b53dfd24e3" d="M20.87,10.24a.65.65,0,0,1-.65-.65A8.3,8.3,0,0,0,11.93,1.3a.65.65,0,0,1,0-1.3,9.6,9.6,0,0,1,9.59,9.59A.65.65,0,0,1,20.87,10.24Z"/><path class="b6efb878-7713-4b35-ac3b-23f6cf25519d" d="M13.28,22.49H5.65A.65.65,0,0,1,5,21.84V20.31a9.58,9.58,0,0,1,4.59-18,.65.65,0,0,1,0,1.3A8.28,8.28,0,0,0,5.94,19.34a.64.64,0,0,1,.36.58v1.27h6.32V20a.63.63,0,0,1,.39-.59,8.33,8.33,0,0,0,4.86-7.55.66.66,0,0,1,1.31,0,9.62,9.62,0,0,1-5.25,8.55v1.39A.66.66,0,0,1,13.28,22.49Z"/><path class="b6efb878-7713-4b35-ac3b-23f6cf25519d" d="M6.42,14.93a2.5,2.5,0,1,1,2.49-2.49A2.5,2.5,0,0,1,6.42,14.93Zm0-3.69a1.2,1.2,0,1,0,1.19,1.2A1.2,1.2,0,0,0,6.42,11.24Z"/><path class="b6efb878-7713-4b35-ac3b-23f6cf25519d" d="M12.51,14.93A2.5,2.5,0,1,1,15,12.44,2.5,2.5,0,0,1,12.51,14.93Zm0-3.69a1.2,1.2,0,1,0,1.19,1.2A1.19,1.19,0,0,0,12.51,11.24Z"/><path class="b6efb878-7713-4b35-ac3b-23f6cf25519d" d="M11.35,22.49H7.57a.65.65,0,0,1-.65-.65V15.07a1.87,1.87,0,0,1,1.86-1.86h1.36A1.86,1.86,0,0,1,12,15.07v6.77A.65.65,0,0,1,11.35,22.49Zm-3.13-1.3H10.7V15.07a.56.56,0,0,0-.56-.56H8.78a.56.56,0,0,0-.56.56Z"/><rect class="af1c07cb-73f8-4488-b171-725a734567ef" x="4.28" y="24.55" width="10.37" height="2.71" rx="1.35"/><path class="b6efb878-7713-4b35-ac3b-23f6cf25519d" d="M13.3,27.9H5.63a2,2,0,1,1,0-4H13.3a2,2,0,1,1,0,4ZM5.63,25.2a.7.7,0,0,0,0,1.4H13.3a.7.7,0,0,0,0-1.4Z"/><rect class="af1c07cb-73f8-4488-b171-725a734567ef" x="4.28" y="21.84" width="10.37" height="2.71" rx="1.35"/><path class="b6efb878-7713-4b35-ac3b-23f6cf25519d" d="M13.3,25.2H5.63a2,2,0,1,1,0-4H13.3a2,2,0,0,1,0,4ZM5.63,22.49a.71.71,0,0,0,0,1.41H13.3a.71.71,0,0,0,0-1.41Z"/><path class="b6a4e355-978b-4f27-b49e-21b53dfd24e3" d="M9,33.56H4.32a.65.65,0,0,1-.65-.65V30A.65.65,0,0,1,5,30v2.23H9a.65.65,0,1,1,0,1.3Z"/><path class="b6a4e355-978b-4f27-b49e-21b53dfd24e3" d="M4.32,30.68H2.8a2,2,0,0,1-2-2,.65.65,0,1,1,1.3,0,.7.7,0,0,0,.7.71H4.32a.65.65,0,1,1,0,1.3Z"/></g></svg>