<svg xmlns="http://www.w3.org/2000/svg" viewBox="0 0 37.15 34.84"><defs><style>.b1a06231-4d91-4308-ada1-6238dc12b1d9,.b3e04ce2-ed7b-4cf1-b9e9-bb564cf15228,.bfff5876-af3c-4932-884f-f171013181d0,.e4a50d48-c05e-4e2f-990d-4a43a89ba942{fill:#fff;}.b1a06231-4d91-4308-ada1-6238dc12b1d9,.b37f3011-069b-4d71-b167-ea64341d14c6,.b3e04ce2-ed7b-4cf1-b9e9-bb564cf15228,.b4bec2d2-c04f-4e55-8a47-586da715329b,.bb782cfb-8479-4c87-abd3-0ae2a2b1b685,.bc9f1f04-ce58-47b1-a640-53c73a8347cc,.bfff5876-af3c-4932-884f-f171013181d0,.e4a50d48-c05e-4e2f-990d-4a43a89ba942,.e6733256-a7c0-4c8e-b463-56012f0c597c,.ed260d55-4129-4d9c-ab8e-b1e6c87ce578{stroke:#4d6293;}.a9d4aa05-261b-4363-af7a-3e1b7ba76df6,.b1a06231-4d91-4308-ada1-6238dc12b1d9,.b37f3011-069b-4d71-b167-ea64341d14c6,.b3e04ce2-ed7b-4cf1-b9e9-bb564cf15228,.b4bec2d2-c04f-4e55-8a47-586da715329b,.b6ed9a05-f6d1-4b75-b5f9-db1d381d568f,.bb782cfb-8479-4c87-abd3-0ae2a2b1b685,.bc43e152-a12c-4bbd-85f1-1c91f5faf72f,.bc9f1f04-ce58-47b1-a640-53c73a8347cc,.bfff5876-af3c-4932-884f-f171013181d0,.e4a50d48-c05e-4e2f-990d-4a43a89ba942,.e6733256-a7c0-4c8e-b463-56012f0c597c,.ed260d55-4129-4d9c-ab8e-b1e6c87ce578,.f189006f-ea54-4d6d-a63a-8cb344c9d6a8{stroke-linecap:round;stroke-linejoin:round;}.a9d4aa05-261b-4363-af7a-3e1b7ba76df6,.b1a06231-4d91-4308-ada1-6238dc12b1d9,.e6733256-a7c0-4c8e-b463-56012f0c597c,.ed260d55-4129-4d9c-ab8e-b1e6c87ce578{stroke-width:1.3px;}.a9d4aa05-261b-4363-af7a-3e1b7ba76df6,.b6ed9a05-f6d1-4b75-b5f9-db1d381d568f,.f189006f-ea54-4d6d-a63a-8cb344c9d6a8{fill:#4d6291;stroke:#4d6291;opacity:0.2;}.bb782cfb-8479-4c87-abd3-0ae2a2b1b685,.bc43e152-a12c-4bbd-85f1-1c91f5faf72f,.e6733256-a7c0-4c8e-b463-56012f0c597c,.ed260d55-4129-4d9c-ab8e-b1e6c87ce578{fill:none;}.b37f3011-069b-4d71-b167-ea64341d14c6,.b3e04ce2-ed7b-4cf1-b9e9-bb564cf15228{stroke-width:0.25px;}.e4a50d48-c05e-4e2f-990d-4a43a89ba942{stroke-width:1.32px;}.b37f3011-069b-4d71-b167-ea64341d14c6,.b4bec2d2-c04f-4e55-8a47-586da715329b,.bc9f1f04-ce58-47b1-a640-53c73a8347cc{fill:#4d6293;}.ed260d55-4129-4d9c-ab8e-b1e6c87ce578{stroke-dasharray:10.83 2.71;}.bc43e152-a12c-4bbd-85f1-1c91f5faf72f{stroke:#faa65c;stroke-width:1.3px;}.b4bec2d2-c04f-4e55-8a47-586da715329b,.b6ed9a05-f6d1-4b75-b5f9-db1d381d568f{stroke-width:0.5px;}.bc9f1f04-ce58-47b1-a640-53c73a8347cc{stroke-width:0.66px;}</style></defs><title>ÍCONO-</title><g id="ec0fac7a-056a-4f74-ba9f-24ebf49bc8f4" data-name="Capa 3"><path class="b1a06231-4d91-4308-ada1-6238dc12b1d9" d="M3.07,8.74H16.34a2.42,2.42,0,0,1,2.42,2.42V27.23a2.42,2.42,0,0,1-2.42,2.42H.65a0,0,0,0,1,0,0V11.16A2.42,2.42,0,0,1,3.07,8.74Z"/><path class="a9d4aa05-261b-4363-af7a-3e1b7ba76df6" d="M18.76,11.25v-.16A2.36,2.36,0,0,0,16.4,8.74H3A2.36,2.36,0,0,0,.65,11.09v.16Z"/><path class="e6733256-a7c0-4c8e-b463-56012f0c597c" d="M18.76,11.25v-.16A2.36,2.36,0,0,0,16.4,8.74H3A2.36,2.36,0,0,0,.65,11.09v.16Z"/><circle class="b3e04ce2-ed7b-4cf1-b9e9-bb564cf15228" cx="13.27" cy="10.04" r="0.21"/><circle class="b3e04ce2-ed7b-4cf1-b9e9-bb564cf15228" cx="14.63" cy="10.04" r="0.21"/><circle class="b3e04ce2-ed7b-4cf1-b9e9-bb564cf15228" cx="15.99" cy="10.04" r="0.21"/><path class="e4a50d48-c05e-4e2f-990d-4a43a89ba942" d="M21.07,8.43H33.54a3,3,0,0,1,3,3V29.65a0,0,0,0,1,0,0H21.07a3,3,0,0,1-3-3V11.39A3,3,0,0,1,21.07,8.43Z"/><path class="a9d4aa05-261b-4363-af7a-3e1b7ba76df6" d="M36.36,11.25v-.16A2.36,2.36,0,0,0,34,8.74H20.6a2.36,2.36,0,0,0-2.35,2.35v.16Z"/><path class="e6733256-a7c0-4c8e-b463-56012f0c597c" d="M36.36,11.25v-.16A2.36,2.36,0,0,0,34,8.74H20.6a2.36,2.36,0,0,0-2.35,2.35v.16Z"/><circle class="b37f3011-069b-4d71-b167-ea64341d14c6" cx="30.87" cy="10.04" r="0.21"/><circle class="b37f3011-069b-4d71-b167-ea64341d14c6" cx="32.23" cy="10.04" r="0.21"/><circle class="b37f3011-069b-4d71-b167-ea64341d14c6" cx="33.59" cy="10.04" r="0.21"/><path class="b1a06231-4d91-4308-ada1-6238dc12b1d9" d="M9.9,3.41H26.55a3.79,3.79,0,0,1,3.79,3.79V31.4a0,0,0,0,1,0,0H6.1a0,0,0,0,1,0,0V7.21A3.79,3.79,0,0,1,9.9,3.41Z"/><path class="a9d4aa05-261b-4363-af7a-3e1b7ba76df6" d="M29.86,6.77V6.56c0-1.73-1.93-3.15-3.66-3.15H10.25c-1.73,0-3.92,1.42-3.92,3.15v.21Z"/><polyline class="e6733256-a7c0-4c8e-b463-56012f0c597c" points="6.1 6.56 6.1 6.77 10.1 6.77"/><line class="ed260d55-4129-4d9c-ab8e-b1e6c87ce578" x1="12.81" y1="6.77" x2="24.99" y2="6.77"/><polyline class="e6733256-a7c0-4c8e-b463-56012f0c597c" points="26.35 6.77 30.35 6.77 30.35 6.56"/><path class="bc43e152-a12c-4bbd-85f1-1c91f5faf72f" d="M16.2.65H8.55A4.57,4.57,0,0,0,4,4.32"/><circle class="b37f3011-069b-4d71-b167-ea64341d14c6" cx="23" cy="5.15" r="0.28"/><circle class="b37f3011-069b-4d71-b167-ea64341d14c6" cx="24.82" cy="5.15" r="0.28"/><circle class="b37f3011-069b-4d71-b167-ea64341d14c6" cx="26.64" cy="5.15" r="0.28"/><circle class="b6ed9a05-f6d1-4b75-b5f9-db1d381d568f" cx="18.18" cy="17.33" r="3.18"/><path class="bb782cfb-8479-4c87-abd3-0ae2a2b1b685" d="M15,17.33a3.18,3.18,0,0,1,3.18-3.17"/><path class="bb782cfb-8479-4c87-abd3-0ae2a2b1b685" d="M21.36,17.33a3.18,3.18,0,0,1-3.18,3.18"/><path class="b4bec2d2-c04f-4e55-8a47-586da715329b" d="M15.1,20.84a4,4,0,0,0,3.08,1.4,3.91,3.91,0,0,0,3-1.4l1.05,2.68-1.68-.16-1,1.41-1.35-2.22L17,24.77l-.93-1.48-1.91.19Z"/><polygon class="bc9f1f04-ce58-47b1-a640-53c73a8347cc" points="18.07 16.54 18.35 17.11 18.99 17.2 18.53 17.65 18.64 18.28 18.07 17.98 17.51 18.28 17.61 17.65 17.16 17.2 17.79 17.11 18.07 16.54"/><circle class="f189006f-ea54-4d6d-a63a-8cb344c9d6a8" cx="13.02" cy="11.42" r="1.98"/><circle class="f189006f-ea54-4d6d-a63a-8cb344c9d6a8" cx="23.28" cy="11.42" r="1.98"/><polyline class="bfff5876-af3c-4932-884f-f171013181d0" points="17.62 10.47 18.61 11.42 17.62 12.34"/><circle class="bb782cfb-8479-4c87-abd3-0ae2a2b1b685" cx="13.02" cy="11.42" r="1.98"/><circle class="bb782cfb-8479-4c87-abd3-0ae2a2b1b685" cx="23.28" cy="11.42" r="1.98"/><line class="bfff5876-af3c-4932-884f-f171013181d0" x1="11.04" y1="26.48" x2="25.27" y2="26.48"/><line class="bfff5876-af3c-4932-884f-f171013181d0" x1="11.04" y1="28.66" x2="25.27" y2="28.66"/><path class="bc43e152-a12c-4bbd-85f1-1c91f5faf72f" d="M21.39,34.19H32.88a.34.34,0,0,0,.34-.34V32.57"/></g></svg>