<svg xmlns="http://www.w3.org/2000/svg" viewBox="0 0 40.63 34.08"><defs><style>.bde86080-8c72-4ed0-b05a-7585417963ec{opacity:0.2;}.e99b1c2a-9572-4f81-8957-09a17410772a{fill:#4d6291;}.aca3f720-f1ce-4b47-88cc-0f1ac6e95768{fill:#fff;}.b25fe945-e597-42c3-8b23-4f48a22bb491{fill:#4d6293;}.abf637b4-4613-4354-873e-2e4d2cca6589{fill:#faa65c;}</style></defs><title>ÍCONO-</title><g id="eab3001b-a70d-448f-acb5-08a15f4f99f2" data-name="Capa 3"><g class="bde86080-8c72-4ed0-b05a-7585417963ec"><path class="e99b1c2a-9572-4f81-8957-09a17410772a" d="M34,11H15.92a2.91,2.91,0,0,0-3.1-2.9H31.51A3.28,3.28,0,0,1,34,11Z"/><path class="e99b1c2a-9572-4f81-8957-09a17410772a" d="M34,11.66H15.92a.65.65,0,0,1-.65-.65,2.25,2.25,0,0,0-2.45-2.25.65.65,0,1,1,0-1.3H31.51a3.89,3.89,0,0,1,3.15,3.43.65.65,0,0,1-.64.77ZM16.5,10.36H33.17a2.53,2.53,0,0,0-1.76-1.61H15.79A3.71,3.71,0,0,1,16.5,10.36Z"/></g><path class="aca3f720-f1ce-4b47-88cc-0f1ac6e95768" d="M10,27.92V11.83c0-4.36,4.16-3.68,4.16-3.68H30.93a3.8,3.8,0,0,0-2.81,3.68c.09,2.9,0,16.36,0,16.36s.38,2.9-1.94,2.9"/><path class="b25fe945-e597-42c3-8b23-4f48a22bb491" d="M26.18,31.74a.65.65,0,0,1,0-1.3,1.16,1.16,0,0,0,.91-.34,2.73,2.73,0,0,0,.38-1.82c0-.23.09-13.57,0-16.43a4,4,0,0,1,1.16-3H14.07a3.47,3.47,0,0,0-2.52.61,3,3,0,0,0-.89,2.43V27.92a.65.65,0,1,1-1.3,0V11.83A4.27,4.27,0,0,1,10.71,8.4a4.78,4.78,0,0,1,3.51-.9H30.93a.65.65,0,0,1,.16,1.27,3.15,3.15,0,0,0-2.32,3c.09,2.89,0,15.84,0,16.39A3.84,3.84,0,0,1,28.06,31,2.39,2.39,0,0,1,26.18,31.74Z"/><path class="abf637b4-4613-4354-873e-2e4d2cca6589" d="M7.56,10.21a.65.65,0,0,1-.65-.65c0-3.34,2.87-4.43,4.1-4.74a4.18,4.18,0,0,1,1.07-.14h4.64a.65.65,0,0,1,0,1.3H12.08a3.08,3.08,0,0,0-.75.1A3.64,3.64,0,0,0,8.21,9.56.65.65,0,0,1,7.56,10.21Z"/><path class="abf637b4-4613-4354-873e-2e4d2cca6589" d="M29.21,34.08a.65.65,0,1,1,0-1.3,1.15,1.15,0,0,0,.91-.34,2.67,2.67,0,0,0,.38-1.82c0-.23.09-13.57,0-16.43a.65.65,0,0,1,.63-.67.62.62,0,0,1,.67.62c.09,2.89,0,15.84,0,16.39a3.86,3.86,0,0,1-.7,2.76A2.43,2.43,0,0,1,29.21,34.08Z"/><g class="bde86080-8c72-4ed0-b05a-7585417963ec"><path class="e99b1c2a-9572-4f81-8957-09a17410772a" d="M5,28.19H23.08a2.91,2.91,0,0,0,3.1,2.9H7.49A3.3,3.3,0,0,1,5,28.19Z"/><path class="e99b1c2a-9572-4f81-8957-09a17410772a" d="M26.18,31.74H7.49a3.88,3.88,0,0,1-3.15-3.43.65.65,0,0,1,.13-.54.69.69,0,0,1,.5-.23H23.08a.65.65,0,0,1,.65.65,2.24,2.24,0,0,0,2.45,2.25.65.65,0,0,1,0,1.3ZM5.83,28.84a2.48,2.48,0,0,0,1.75,1.61H23.21a3.63,3.63,0,0,1-.71-1.61Z"/></g><path class="b25fe945-e597-42c3-8b23-4f48a22bb491" d="M34,11.66a.64.64,0,0,1-.63-.53,2.69,2.69,0,0,0-2-2.38A.65.65,0,0,1,30.87,8a.66.66,0,0,1,.73-.55,3.94,3.94,0,0,1,3.06,3.43.64.64,0,0,1-.52.76Z"/><path class="b25fe945-e597-42c3-8b23-4f48a22bb491" d="M7.49,31.74H7.4a3.92,3.92,0,0,1-3.06-3.43.65.65,0,0,1,.13-.54.69.69,0,0,1,.5-.23h8.56a.65.65,0,0,1,0,1.3H5.83a2.48,2.48,0,0,0,1.75,1.61.65.65,0,0,1-.09,1.29Z"/><path class="b25fe945-e597-42c3-8b23-4f48a22bb491" d="M26.18,31.74H19.85a.65.65,0,1,1,0-1.3h3.36a3.55,3.55,0,0,1-.71-1.6H16.72a.65.65,0,0,1,0-1.3h6.36a.65.65,0,0,1,.65.65,2.24,2.24,0,0,0,2.45,2.25.65.65,0,0,1,0,1.3Z"/><path class="b25fe945-e597-42c3-8b23-4f48a22bb491" d="M25,15.35H16.72a.65.65,0,0,1,0-1.3H25a.65.65,0,0,1,0,1.3Z"/><path class="b25fe945-e597-42c3-8b23-4f48a22bb491" d="M14.08,15.35H13a.65.65,0,0,1,0-1.3h1.1a.65.65,0,0,1,0,1.3Z"/><path class="b25fe945-e597-42c3-8b23-4f48a22bb491" d="M25,18.38H16.72a.65.65,0,0,1,0-1.3H25a.65.65,0,1,1,0,1.3Z"/><path class="b25fe945-e597-42c3-8b23-4f48a22bb491" d="M14.08,18.38H13a.65.65,0,1,1,0-1.3h1.1a.65.65,0,1,1,0,1.3Z"/><path class="b25fe945-e597-42c3-8b23-4f48a22bb491" d="M25,21.42H16.72a.65.65,0,0,1,0-1.3H25a.65.65,0,0,1,0,1.3Z"/><path class="b25fe945-e597-42c3-8b23-4f48a22bb491" d="M14.08,21.42H13a.65.65,0,1,1,0-1.3h1.1a.65.65,0,1,1,0,1.3Z"/><path class="b25fe945-e597-42c3-8b23-4f48a22bb491" d="M25,24.45H16.72a.65.65,0,0,1,0-1.3H25a.65.65,0,1,1,0,1.3Z"/><path class="b25fe945-e597-42c3-8b23-4f48a22bb491" d="M14.08,24.45H13a.65.65,0,0,1,0-1.3h1.1a.65.65,0,0,1,0,1.3Z"/><path class="b25fe945-e597-42c3-8b23-4f48a22bb491" d="M4.62,22.31H2.44a.65.65,0,0,1-.65-.65V8.44a.65.65,0,0,1,.65-.65H4.62a.65.65,0,0,1,.65.65V21.66A.65.65,0,0,1,4.62,22.31ZM3.09,21H4V9.09H3.09Z"/><path class="b25fe945-e597-42c3-8b23-4f48a22bb491" d="M4.62,9.09H2.44a.65.65,0,0,1-.65-.65V7.05A1.69,1.69,0,0,1,3.48,5.36,1.72,1.72,0,0,1,5.27,7.05V8.44A.65.65,0,0,1,4.62,9.09ZM3.09,7.79H4V7.05a.38.38,0,0,0-.39-.39c-.31,0-.49.17-.49.39Z"/><path class="b25fe945-e597-42c3-8b23-4f48a22bb491" d="M.65,12.87A.65.65,0,0,1,0,12.22V8.44a.65.65,0,0,1,.65-.65H2.44a.65.65,0,1,1,0,1.3H1.3v3.13A.65.65,0,0,1,.65,12.87Z"/><polygon class="abf637b4-4613-4354-873e-2e4d2cca6589" points="2.44 21.66 3.53 24.23 4.62 21.66 2.44 21.66"/><path class="b25fe945-e597-42c3-8b23-4f48a22bb491" d="M3.53,24.88h0a.66.66,0,0,1-.6-.4L1.84,21.91a.66.66,0,0,1,.06-.61A.65.65,0,0,1,2.44,21H4.62a.65.65,0,0,1,.54.29.66.66,0,0,1,.06.61L4.13,24.48A.66.66,0,0,1,3.53,24.88Zm-.11-2.57.11.25.11-.25Z"/><path class="b25fe945-e597-42c3-8b23-4f48a22bb491" d="M35.64,4.5A.66.66,0,0,1,35,3.85a1,1,0,0,0-.24-.73,1,1,0,0,0-.65-.22A.65.65,0,0,1,34,1.6c.11,0,1-.16,1-.95a.65.65,0,0,1,1.3,0,1,1,0,0,0,.94,1,.65.65,0,0,1,0,1.3.87.87,0,0,0-.92,1A.66.66,0,0,1,35.64,4.5Z"/><circle class="b25fe945-e597-42c3-8b23-4f48a22bb491" cx="30.82" cy="4.47" r="0.63"/><path class="b25fe945-e597-42c3-8b23-4f48a22bb491" d="M39.06,23.25a.65.65,0,0,1-.65-.65.35.35,0,0,0-.06-.24.36.36,0,0,0-.18-.06h0a.65.65,0,0,1-.69-.58.66.66,0,0,1,.57-.71c.09,0,.37-.07.37-.29a.65.65,0,1,1,1.3,0A.28.28,0,0,0,40,21a.65.65,0,0,1,0,1.3c-.27,0-.27.18-.27.29A.65.65,0,0,1,39.06,23.25Z"/><circle class="b25fe945-e597-42c3-8b23-4f48a22bb491" cx="34.89" cy="24.54" r="0.63"/><circle class="b25fe945-e597-42c3-8b23-4f48a22bb491" cx="39.06" cy="26.77" r="0.63"/></g></svg>