<?xml version="1.0" encoding="UTF-8"?>
<svg width="43px" height="43px" viewBox="0 0 43 43" version="1.1" xmlns="http://www.w3.org/2000/svg" xmlns:xlink="http://www.w3.org/1999/xlink">
    <!-- Generator: Sketch 56.3 (81716) - https://sketch.com -->
    <title>twitter</title>
    <desc>Created with Sketch.</desc>
    <g id="Page-1" stroke="none" stroke-width="1" fill="none" fill-rule="evenodd">
        <g id="Mobile" transform="translate(-66.000000, -6789.000000)" fill="#506199">
            <g id="Group-19" transform="translate(66.145361, 6564.254253)">
                <g id="Group-4" transform="translate(0.000000, 224.000000)">
                    <g id="twitter" transform="translate(0.000000, 1.000000)">
                        <g id="iconfinder_linkedin-square_1608763">
                            <path d="M21,0 C32.5979797,-2.13051432e-15 42,9.40202025 42,21 C42,32.5979797 32.5979797,42 21,42 C9.40202025,42 1.42034288e-15,32.5979797 0,21 C-1.42034288e-15,9.40202025 9.40202025,2.13051432e-15 21,0 Z M33.03125,14.2447266 C32.1728367,14.6138718 31.3144234,14.8445755 30.4560101,14.9368652 C31.4251864,14.3554688 32.0805296,13.5341355 32.4220535,12.4728516 C31.5359494,12.998877 30.5898533,13.3587891 29.5837514,13.5525879 C28.6976473,12.6112793 27.6084731,12.140625 26.3162427,12.140625 C25.0793937,12.140625 24.0248329,12.5766724 23.1525743,13.4487671 C22.2803156,14.3208618 21.8441862,15.3752243 21.8441862,16.6118408 C21.8441862,16.9440674 21.8811118,17.2855271 21.9549492,17.6362061 C20.1273596,17.5439163 18.4128452,17.0848069 16.8113921,16.2588501 C15.209939,15.4328933 13.8507938,14.3323928 12.7339289,12.9573486 C12.3278024,13.6494873 12.1247323,14.4016067 12.1247323,15.2137207 C12.1247323,15.9796829 12.3047222,16.6902878 12.664702,17.3455078 C13.0246817,18.0007278 13.5092699,18.5313767 14.1184664,18.9374268 C13.3985069,18.9097412 12.724694,18.720552 12.0970416,18.369873 L12.0970416,18.4252441 C12.0970416,19.5049805 12.4362533,20.4532104 13.1146767,21.2699341 C13.7931001,22.0866577 14.6492012,22.6011521 15.6829939,22.8134033 C15.2953234,22.9149124 14.9030424,22.9656738 14.506137,22.9656738 C14.2476853,22.9656738 13.9661673,22.9425979 13.661569,22.89646 C13.9477114,23.7916306 14.4738357,24.5275955 15.2399419,25.1043823 C16.0060481,25.6811692 16.8736963,25.9787888 17.8428726,25.9972412 C16.2183531,27.2707764 14.3676832,27.9075439 12.2908768,27.9075439 C11.8939714,27.9075439 11.5339917,27.8890915 11.2109375,27.8521729 C13.2877439,29.1903122 15.5768414,29.859375 18.078244,29.859375 C19.6658517,29.859375 21.1565279,29.6078933 22.5503004,29.1049438 C23.9440729,28.6019944 25.1347752,27.9283081 26.1224074,27.0838989 C27.1100396,26.2394897 27.9615302,25.2681839 28.6768793,24.1699951 C29.3922283,23.0718064 29.9252753,21.9251541 30.2760202,20.7300659 C30.6267651,19.5349778 30.8021445,18.3375779 30.8021445,17.1378662 C30.8021445,16.8794632 30.797534,16.6856643 30.7882991,16.5564697 C31.6651683,15.9197021 32.4128186,15.1491165 33.03125,14.2447266 Z" id="Shape" fill-rule="nonzero"></path>
                        </g>
                    </g>
                </g>
            </g>
        </g>
    </g>
</svg>