<?xml version="1.0" encoding="UTF-8"?>
<svg width="44px" height="44px" viewBox="0 0 44 44" version="1.1" xmlns="http://www.w3.org/2000/svg" xmlns:xlink="http://www.w3.org/1999/xlink">
    <!-- Generator: Sketch 56.3 (81716) - https://sketch.com -->
    <title>facebook</title>
    <desc>Created with Sketch.</desc>
    <g id="Page-1" stroke="none" stroke-width="1" fill="none" fill-rule="evenodd">
        <g id="Mobile" transform="translate(-124.000000, -6788.000000)" fill="#506199">
            <g id="Group-19" transform="translate(66.145361, 6564.254253)">
                <g id="Group-4" transform="translate(0.000000, 224.000000)">
                    <g id="facebook" transform="translate(58.000000, 0.000000)">
                        <g id="iconfinder_facebook_circle_black_107153">
                            <path d="M18.4649167,33.196 L23.2981167,33.196 L23.2981167,21.4985667 L26.5224,21.4985667 L26.9495333,17.4680333 L23.2981167,17.4680333 L23.3031333,15.4499 C23.3031333,14.3992667 23.4034667,13.83525 24.9113333,13.83525 L26.9266,13.83525 L26.9266,9.804 L23.7016,9.804 C19.8280167,9.804 18.4649167,11.7597833 18.4649167,15.04785 L18.4649167,17.4680333 L16.0504667,17.4680333 L16.0504667,21.4992833 L18.4649167,21.4992833 L18.4649167,33.196 L18.4649167,33.196 Z M21.5,43 C9.62626667,43 0,33.3737333 0,21.5 C0,9.62555 9.62626667,0 21.5,0 C33.3737333,0 43,9.62555 43,21.5 C43,33.3737333 33.3737333,43 21.5,43 Z" id="Shape"></path>
                        </g>
                    </g>
                </g>
            </g>
        </g>
    </g>
</svg>