<?xml version="1.0" encoding="UTF-8"?>
<svg width="43px" height="43px" viewBox="0 0 43 43" version="1.1" xmlns="http://www.w3.org/2000/svg" xmlns:xlink="http://www.w3.org/1999/xlink">
    <!-- Generator: Sketch 56.3 (81716) - https://sketch.com -->
    <title>iconfinder_38-instagram_1161954</title>
    <desc>Created with Sketch.</desc>
    <g id="Page-1" stroke="none" stroke-width="1" fill="none" fill-rule="evenodd">
        <g id="Mobile" transform="translate(-241.000000, -6788.000000)" fill="#506199" fill-rule="nonzero">
            <g id="Group-19" transform="translate(66.145361, 6564.254253)">
                <g id="Group-4" transform="translate(0.000000, 224.000000)">
                    <g id="iconfinder_38-instagram_1161954" transform="translate(175.000000, 0.000000)">
                        <circle id="Oval" cx="20.819325" cy="21.180675" r="3.7524818"></circle>
                        <path d="M25.5243056,11.9245533 L16.140219,11.9245533 C14.775261,11.9245533 13.5809227,12.3511027 12.8131338,13.1188916 C12.0453449,13.8866805 11.6187955,15.0810188 11.6187955,16.4459768 L11.6187955,25.8300634 C11.6187955,27.1950215 12.0453449,28.3893597 12.8984437,29.2424585 C13.7515425,30.0102474 14.8605709,30.4367968 16.2255289,30.4367968 L25.5243056,30.4367968 C26.8892637,30.4367968 28.083602,30.0102474 28.8513909,29.2424585 C29.7044897,28.4746696 30.131039,27.2803313 30.131039,25.9153733 L30.131039,16.5312867 C30.131039,15.1663286 29.7044897,14.0573002 28.9367008,13.2042014 C28.083602,12.3511027 26.9745736,11.9245533 25.5243056,11.9245533 Z M20.8322623,26.9390918 C17.590487,26.9390918 15.0311906,24.2944856 15.0311906,21.1380201 C15.0311906,17.8962447 17.6757968,15.3369484 20.8322623,15.3369484 C23.9887278,15.3369484 26.7186439,17.8962447 26.7186439,21.1380201 C26.7186439,24.3797955 24.0740377,26.9390918 20.8322623,26.9390918 Z M26.8892637,16.4459768 C26.1214748,16.4459768 25.5243056,15.8488077 25.5243056,15.0810188 C25.5243056,14.3132299 26.1214748,13.7160607 26.8892637,13.7160607 C27.6570526,13.7160607 28.2542217,14.3132299 28.2542217,15.0810188 C28.2542217,15.8488077 27.6570526,16.4459768 26.8892637,16.4459768 Z" id="Shape"></path>
                        <g id="instagram">
                            <path d="M20.9997138,-5.68434189e-14 C9.39011595,-5.68434189e-14 -6.39488462e-14,9.3902439 -6.39488462e-14,21 C-6.39488462e-14,32.6097561 9.39011595,42 20.9997138,42 C32.6093117,42 41.9994277,32.6097561 41.9994277,21 C42.0847924,9.3902439 32.6093117,-5.68434189e-14 20.9997138,-5.68434189e-14 Z M32.1824883,25.9512195 C32.1824883,27.9146341 31.4995708,29.6219512 30.3044651,30.8170732 C29.1093594,32.0121951 27.4020656,32.6097561 25.5240424,32.6097561 L16.2192912,32.6097561 C14.341268,32.6097561 12.6339742,32.0121951 11.4388685,30.8170732 C10.1583982,29.6219512 9.56084533,27.9146341 9.56084533,25.9512195 L9.56084533,16.5609756 C9.56084533,12.6341463 12.2071507,9.90243902 16.2192912,9.90243902 L25.6094071,9.90243902 C27.572795,9.90243902 29.1947241,10.5853659 30.3898298,11.7804878 C31.5849355,12.9756098 32.1824883,14.597561 32.1824883,16.5609756 L32.1824883,25.9512195 Z" id="Shape"></path>
                        </g>
                    </g>
                </g>
            </g>
        </g>
    </g>
</svg>