<?xml version="1.0" encoding="UTF-8"?>
<svg width="43px" height="43px" viewBox="0 0 43 43" version="1.1" xmlns="http://www.w3.org/2000/svg" xmlns:xlink="http://www.w3.org/1999/xlink">
    <!-- Generator: Sketch 56.3 (81716) - https://sketch.com -->
    <title>linkedin</title>
    <desc>Created with Sketch.</desc>
    <g id="Page-1" stroke="none" stroke-width="1" fill="none" fill-rule="evenodd">
        <g id="Mobile" transform="translate(-183.000000, -6788.000000)" fill="#506199">
            <g id="Group-19" transform="translate(66.145361, 6564.254253)">
                <g id="Group-4" transform="translate(0.000000, 224.000000)">
                    <g id="linkedin" transform="translate(117.000000, 0.000000)">
                        <g id="iconfinder_linkedin-square_1608763">
                            <path d="M11.375,29.421875 L15.75,29.421875 L15.75,16.2421875 L11.375,16.2421875 L11.375,29.421875 Z M16.0507812,12.1816406 C16.0380909,11.5220486 15.8096655,10.9766168 15.3655048,10.5453451 C14.9213442,10.1140734 14.331245,9.8984375 13.5952073,9.8984375 C12.8591697,9.8984375 12.2595528,10.1140734 11.7963567,10.5453451 C11.3331606,10.9766168 11.1015625,11.5220486 11.1015625,12.1816406 C11.1015625,12.8285482 11.3268154,13.3708089 11.7773212,13.8084229 C12.227827,14.2460368 12.8147536,14.4648437 13.538101,14.4648437 L13.5571364,14.4648437 C14.3058644,14.4648437 14.9086538,14.2460368 15.3655048,13.8084229 C15.8223558,13.3708089 16.0507812,12.8285482 16.0507812,12.1816406 Z M27.1399536,29.421875 L31.5273437,29.421875 L31.5273437,21.8652179 C31.5273437,19.9159294 31.06518,18.4413054 30.1408525,17.4413457 C29.216525,16.4413861 27.99464,15.9414063 26.4751975,15.9414063 C24.7531627,15.9414063 23.4299816,16.6818827 22.5056541,18.1628356 L22.5436401,18.1628356 L22.5436401,16.2451915 L18.15625,16.2451915 C18.1942361,17.0806008 18.1942361,21.4728286 18.15625,29.421875 L22.5436401,29.421875 L22.5436401,22.0550836 C22.5436401,21.5740904 22.5879572,21.2196743 22.6765914,20.9918354 C22.8665217,20.5488153 23.1514171,20.1722482 23.5312777,19.8621341 C23.9111384,19.5520201 24.3796331,19.396963 24.936762,19.396963 C26.4055564,19.396963 27.1399536,20.3905938 27.1399536,22.3778554 L27.1399536,29.421875 Z M21,0 C32.5979797,-2.13051432e-15 42,9.40202025 42,21 C42,32.5979797 32.5979797,42 21,42 C9.40202025,42 1.42034288e-15,32.5979797 0,21 C-1.42034288e-15,9.40202025 9.40202025,2.13051432e-15 21,0 Z" id="Shape" fill-rule="nonzero"></path>
                        </g>
                    </g>
                </g>
            </g>
        </g>
    </g>
</svg>